<svg data-v-423bf9ae="" xmlns="http://www.w3.org/2000/svg" viewBox="0 0 325.23762119278547 60" class="font"><!----><defs data-v-423bf9ae=""><linearGradient data-v-423bf9ae="" gradientTransform="rotate(25)" id="fd474fde-b02a-4fe1-8e9c-7931f3dfff08" x1="0%" y1="0%" x2="100%" y2="0%"><stop data-v-423bf9ae="" offset="0%" style="stop-color: rgb(8, 199, 214); stop-opacity: 1;"></stop><stop data-v-423bf9ae="" offset="100%" style="stop-color: rgb(2, 2, 62); stop-opacity: 1;"></stop></linearGradient></defs><!----><g data-v-423bf9ae="" id="28a86cd0-e731-4f77-ba9d-763c078bc32d" fill="#ffffff" transform="matrix(5.44997732156018,0,0,5.44997732156018,-6.103977310654784,-0.34487348263017026)"><path d="M4.38 8.78L4.38 8.78C6.30 8.78 7.57 7.34 7.57 5.49C7.57 3.65 6.30 2.21 4.38 2.21L3.46 2.21C3.21 2.21 3.00 2.42 3.00 2.69L3.00 6.43C3.00 6.69 3.21 6.90 3.46 6.90C3.72 6.90 3.92 6.69 3.92 6.43L3.92 3.15L4.38 3.15C5.77 3.15 6.65 4.17 6.65 5.49C6.65 6.82 5.77 7.84 4.38 7.84L3.46 7.84C3.21 7.84 3.00 8.05 3.00 8.30C3.00 8.57 3.21 8.78 3.46 8.78ZM2.06 10.18L2.06 10.18L2.06 1.29L4.38 1.29C6.89 1.29 8.60 3.05 8.60 5.49C8.60 7.94 6.89 9.70 4.38 9.70L3.44 9.70C3.19 9.70 2.98 9.91 2.98 10.18C2.98 10.43 3.19 10.64 3.44 10.64L4.38 10.64C7.42 10.64 9.53 8.46 9.53 5.49C9.53 2.53 7.42 0.35 4.38 0.35L1.58 0.35C1.33 0.35 1.12 0.56 1.12 0.81L1.12 10.18C1.12 10.43 1.33 10.64 1.58 10.64C1.85 10.64 2.06 10.43 2.06 10.18ZM13.79 7.84L13.79 7.84L15.15 7.84C15.41 7.84 15.64 7.63 15.64 7.36C15.64 7.29 15.62 7.24 15.60 7.18L14.91 5.50C14.81 5.28 14.55 5.17 14.29 5.26C14.07 5.35 13.96 5.63 14.04 5.87L14.46 6.90L13.79 6.90C13.54 6.90 13.33 7.10 13.33 7.36C13.33 7.63 13.54 7.84 13.79 7.84ZM13.10 10.26L13.10 10.26L13.34 9.72L15.61 9.72L15.83 10.26C15.93 10.51 16.21 10.61 16.45 10.53C16.69 10.42 16.79 10.15 16.70 9.91L16.37 9.10C16.31 8.92 16.13 8.76 15.92 8.76L13.02 8.76L13.02 8.76C12.85 8.76 12.67 8.89 12.59 9.06L12.25 9.91C12.15 10.15 12.26 10.42 12.50 10.53C12.75 10.61 13.02 10.50 13.10 10.26ZM11.10 10.26L11.10 10.26L14.48 1.76L17.85 10.26C17.95 10.50 18.23 10.61 18.47 10.53C18.70 10.42 18.82 10.15 18.72 9.91L14.91 0.36C14.87 0.25 14.78 0.14 14.64 0.10C14.42 0 14.14 0.11 14.04 0.36L10.22 9.91C10.14 10.15 10.26 10.42 10.49 10.53C10.72 10.61 10.99 10.50 11.10 10.26ZM21.08 10.18L21.08 10.18L21.08 0.81C21.08 0.56 20.89 0.36 20.62 0.36C20.37 0.36 20.16 0.56 20.16 0.81L20.16 10.18C20.16 10.43 20.37 10.65 20.62 10.65C20.89 10.65 21.08 10.43 21.08 10.18ZM28.73 10.18L28.73 10.18L28.73 0.81C28.73 0.56 28.52 0.36 28.25 0.36C28.00 0.36 27.79 0.56 27.79 0.81L27.79 10.18C27.79 10.43 28.00 10.65 28.25 10.65C28.52 10.65 28.73 10.43 28.73 10.18ZM26.95 9.91L26.95 9.91L22.88 4.09C22.74 3.86 22.43 3.81 22.23 3.98C22.09 4.06 22.04 4.20 22.04 4.35L22.04 10.18C22.04 10.43 22.23 10.64 22.48 10.64C22.75 10.64 22.96 10.43 22.96 10.18L22.96 5.84L26.18 10.44C26.33 10.65 26.61 10.71 26.84 10.57C27.03 10.40 27.09 10.12 26.95 9.91ZM21.94 1.09L21.94 1.09L26.00 6.92C26.15 7.13 26.43 7.18 26.64 7.03C26.78 6.94 26.85 6.79 26.85 6.64L26.85 0.81C26.85 0.56 26.64 0.36 26.39 0.36C26.14 0.36 25.91 0.56 25.91 0.81L25.91 5.17L22.69 0.56C22.55 0.35 22.26 0.28 22.05 0.45C21.84 0.59 21.78 0.87 21.94 1.09ZM38.22 8.78L38.22 8.78C40.14 8.78 41.41 7.34 41.41 5.49C41.41 3.65 40.14 2.21 38.22 2.21L37.30 2.21C37.04 2.21 36.83 2.42 36.83 2.69L36.83 6.43C36.83 6.69 37.04 6.90 37.30 6.90C37.56 6.90 37.76 6.69 37.76 6.43L37.76 3.15L38.22 3.15C39.61 3.15 40.49 4.17 40.49 5.49C40.49 6.82 39.61 7.84 38.22 7.84L37.30 7.84C37.04 7.84 36.83 8.05 36.83 8.30C36.83 8.57 37.04 8.78 37.30 8.78ZM35.90 10.18L35.90 10.18L35.90 1.29L38.22 1.29C40.73 1.29 42.43 3.05 42.43 5.49C42.43 7.94 40.73 9.70 38.22 9.70L37.28 9.70C37.03 9.70 36.82 9.91 36.82 10.18C36.82 10.43 37.03 10.64 37.28 10.64L38.22 10.64C41.26 10.64 43.37 8.46 43.37 5.49C43.37 2.53 41.26 0.35 38.22 0.35L35.42 0.35C35.17 0.35 34.96 0.56 34.96 0.81L34.96 10.18C34.96 10.43 35.17 10.64 35.42 10.64C35.69 10.64 35.90 10.43 35.90 10.18ZM50.55 2.23L50.55 2.23L47.59 2.23C47.32 2.23 47.11 2.42 47.11 2.69L47.11 4.56C47.11 4.82 47.32 5.03 47.59 5.03L49.69 5.03C49.95 5.03 50.16 4.82 50.16 4.56C50.16 4.30 49.95 4.09 49.69 4.09L48.05 4.09L48.05 3.15L50.55 3.15C50.82 3.15 51.03 2.94 51.03 2.69C51.03 2.42 50.82 2.23 50.55 2.23ZM49.69 5.96L49.69 5.96L47.59 5.96C47.32 5.96 47.11 6.17 47.11 6.43L47.11 8.30C47.11 8.55 47.32 8.76 47.59 8.76L50.55 8.76C50.82 8.76 51.03 8.55 51.03 8.30C51.03 8.04 50.82 7.83 50.55 7.83L48.05 7.83L48.05 6.90L49.69 6.90C49.95 6.90 50.16 6.69 50.16 6.43C50.16 6.17 49.95 5.96 49.69 5.96ZM50.55 9.70L50.55 9.70L46.19 9.70L46.19 1.29L50.55 1.29C50.82 1.29 51.03 1.08 51.03 0.81C51.03 0.56 50.82 0.35 50.55 0.35L45.71 0.35C45.46 0.35 45.25 0.56 45.25 0.81L45.25 10.18C45.25 10.43 45.46 10.64 45.71 10.64L50.55 10.64C50.82 10.64 51.03 10.43 51.03 10.18C51.03 9.91 50.82 9.70 50.55 9.70ZM54.04 0.99L54.04 0.99L55.90 5.60C56.07 5.98 56.62 5.98 56.77 5.60L58.66 0.99C58.74 0.74 58.63 0.49 58.39 0.38C58.16 0.29 57.88 0.41 57.79 0.64L56.35 4.19L54.89 0.64C54.80 0.41 54.53 0.29 54.28 0.38C54.05 0.49 53.93 0.74 54.04 0.99ZM59.91 0.64L59.91 0.64L56.35 9.38L52.78 0.64C52.68 0.41 52.42 0.29 52.18 0.38C51.93 0.49 51.83 0.74 51.91 0.99L55.90 10.78C56.07 11.17 56.60 11.17 56.77 10.78L60.76 0.99C60.86 0.74 60.75 0.49 60.51 0.38C60.28 0.29 60.00 0.41 59.91 0.64Z"></path></g><!----><!----></svg>